<mxfile host="app.diagrams.net" modified="2024-01-24T11:58:45.657Z" agent="Mozilla/5.0 (Windows NT 10.0; Win64; x64) AppleWebKit/537.36 (KHTML, like Gecko) Chrome/120.0.0.0 Safari/537.36" etag="tSBRwZf8hdmHjlK8ehkd" version="22.1.21" type="device">
  <diagram name="Page-1" id="f3rAmZV3NeJfyY581rgX">
    <mxGraphModel dx="1434" dy="818" grid="1" gridSize="10" guides="1" tooltips="1" connect="1" arrows="1" fold="1" page="1" pageScale="1" pageWidth="850" pageHeight="1100" math="0" shadow="0">
      <root>
        <mxCell id="0" />
        <mxCell id="1" parent="0" />
        <mxCell id="PYC6q0aqNB9xULEIXCk9-18" value="" style="rounded=0;whiteSpace=wrap;html=1;" vertex="1" parent="1">
          <mxGeometry x="90" y="310" width="420" height="410" as="geometry" />
        </mxCell>
        <mxCell id="PYC6q0aqNB9xULEIXCk9-1" value="&lt;font style=&quot;font-size: 14px;&quot;&gt;The main - &lt;br&gt;&lt;b&gt;Management System&lt;/b&gt;&lt;/font&gt;&lt;br&gt;&lt;br&gt;&lt;div style=&quot;text-align: left;&quot;&gt;&lt;span style=&quot;background-color: initial;&quot;&gt;&amp;gt; User management&lt;/span&gt;&lt;/div&gt;&lt;div style=&quot;text-align: left;&quot;&gt;&lt;span style=&quot;background-color: initial;&quot;&gt;&amp;gt; Client Interface&amp;nbsp;&lt;/span&gt;&lt;/div&gt;&lt;div style=&quot;text-align: left;&quot;&gt;&lt;span style=&quot;background-color: initial;&quot;&gt;&amp;gt; Service entry&lt;/span&gt;&lt;/div&gt;&lt;div style=&quot;text-align: left;&quot;&gt;&lt;span style=&quot;background-color: initial;&quot;&gt;&amp;gt; ...&lt;/span&gt;&lt;/div&gt;" style="rounded=0;whiteSpace=wrap;html=1;" vertex="1" parent="1">
          <mxGeometry x="120" y="340" width="160" height="120" as="geometry" />
        </mxCell>
        <mxCell id="PYC6q0aqNB9xULEIXCk9-3" value="Redis&lt;br&gt;(Store &amp;amp; Share data)" style="shape=cylinder3;whiteSpace=wrap;html=1;boundedLbl=1;backgroundOutline=1;size=15;" vertex="1" parent="1">
          <mxGeometry x="230" y="490" width="130" height="90" as="geometry" />
        </mxCell>
        <mxCell id="PYC6q0aqNB9xULEIXCk9-4" value="Service 1 -&lt;br style=&quot;border-color: var(--border-color);&quot;&gt;AIGC - Text &amp;amp; Chatting" style="shape=parallelogram;perimeter=parallelogramPerimeter;whiteSpace=wrap;html=1;fixedSize=1;" vertex="1" parent="1">
          <mxGeometry x="320" y="390" width="160" height="70" as="geometry" />
        </mxCell>
        <mxCell id="PYC6q0aqNB9xULEIXCk9-5" value="Service 2 -&lt;br style=&quot;border-color: var(--border-color);&quot;&gt;AIGC - image generate" style="shape=parallelogram;perimeter=parallelogramPerimeter;whiteSpace=wrap;html=1;fixedSize=1;" vertex="1" parent="1">
          <mxGeometry x="120" y="620" width="160" height="70" as="geometry" />
        </mxCell>
        <mxCell id="PYC6q0aqNB9xULEIXCk9-6" value="Service 3 -&lt;br style=&quot;border-color: var(--border-color);&quot;&gt;..." style="shape=parallelogram;perimeter=parallelogramPerimeter;whiteSpace=wrap;html=1;fixedSize=1;" vertex="1" parent="1">
          <mxGeometry x="320" y="620" width="160" height="70" as="geometry" />
        </mxCell>
        <mxCell id="PYC6q0aqNB9xULEIXCk9-10" style="edgeStyle=orthogonalEdgeStyle;rounded=0;orthogonalLoop=1;jettySize=auto;html=1;entryX=0;entryY=0;entryDx=0;entryDy=30;entryPerimeter=0;" edge="1" parent="1" source="PYC6q0aqNB9xULEIXCk9-1" target="PYC6q0aqNB9xULEIXCk9-3">
          <mxGeometry relative="1" as="geometry" />
        </mxCell>
        <mxCell id="PYC6q0aqNB9xULEIXCk9-14" value="&lt;font style=&quot;font-size: 14px;&quot;&gt;Write&lt;/font&gt;" style="edgeLabel;html=1;align=center;verticalAlign=middle;resizable=0;points=[];" vertex="1" connectable="0" parent="PYC6q0aqNB9xULEIXCk9-10">
          <mxGeometry x="-0.4222" relative="1" as="geometry">
            <mxPoint y="4" as="offset" />
          </mxGeometry>
        </mxCell>
        <mxCell id="PYC6q0aqNB9xULEIXCk9-11" style="edgeStyle=orthogonalEdgeStyle;rounded=0;orthogonalLoop=1;jettySize=auto;html=1;entryX=1;entryY=0;entryDx=0;entryDy=30;entryPerimeter=0;" edge="1" parent="1" source="PYC6q0aqNB9xULEIXCk9-4" target="PYC6q0aqNB9xULEIXCk9-3">
          <mxGeometry relative="1" as="geometry" />
        </mxCell>
        <mxCell id="PYC6q0aqNB9xULEIXCk9-15" value="&lt;font style=&quot;font-size: 14px;&quot;&gt;Read&lt;/font&gt;" style="edgeLabel;html=1;align=center;verticalAlign=middle;resizable=0;points=[];" vertex="1" connectable="0" parent="PYC6q0aqNB9xULEIXCk9-11">
          <mxGeometry x="-0.2769" relative="1" as="geometry">
            <mxPoint y="-7" as="offset" />
          </mxGeometry>
        </mxCell>
        <mxCell id="PYC6q0aqNB9xULEIXCk9-12" style="edgeStyle=orthogonalEdgeStyle;rounded=0;orthogonalLoop=1;jettySize=auto;html=1;entryX=0;entryY=0;entryDx=0;entryDy=60;entryPerimeter=0;" edge="1" parent="1" source="PYC6q0aqNB9xULEIXCk9-5" target="PYC6q0aqNB9xULEIXCk9-3">
          <mxGeometry relative="1" as="geometry" />
        </mxCell>
        <mxCell id="PYC6q0aqNB9xULEIXCk9-16" value="&lt;font style=&quot;font-size: 14px;&quot;&gt;Read&lt;/font&gt;" style="edgeLabel;html=1;align=center;verticalAlign=middle;resizable=0;points=[];" vertex="1" connectable="0" parent="PYC6q0aqNB9xULEIXCk9-12">
          <mxGeometry x="-0.2889" y="1" relative="1" as="geometry">
            <mxPoint as="offset" />
          </mxGeometry>
        </mxCell>
        <mxCell id="PYC6q0aqNB9xULEIXCk9-13" style="edgeStyle=orthogonalEdgeStyle;rounded=0;orthogonalLoop=1;jettySize=auto;html=1;entryX=1;entryY=0;entryDx=0;entryDy=60;entryPerimeter=0;" edge="1" parent="1" source="PYC6q0aqNB9xULEIXCk9-6" target="PYC6q0aqNB9xULEIXCk9-3">
          <mxGeometry relative="1" as="geometry" />
        </mxCell>
        <mxCell id="PYC6q0aqNB9xULEIXCk9-17" value="&lt;font style=&quot;font-size: 14px;&quot;&gt;(actions)&lt;/font&gt;" style="edgeLabel;html=1;align=center;verticalAlign=middle;resizable=0;points=[];" vertex="1" connectable="0" parent="PYC6q0aqNB9xULEIXCk9-13">
          <mxGeometry x="-0.26" y="-1" relative="1" as="geometry">
            <mxPoint x="-1" y="7" as="offset" />
          </mxGeometry>
        </mxCell>
      </root>
    </mxGraphModel>
  </diagram>
</mxfile>
